<svg xmlns="http://www.w3.org/2000/svg" width="90.329" height="32.104" viewBox="0 0 90.329 32.104">
  <g id="Page-1" transform="translate(-0.519 -0.273)">
    <g id="Artboard" transform="translate(-112 -165)">
      <g id="paper" transform="translate(113.508 166.195)">
        <path id="paper-bk" d="M87.657,9.92C84.1,8.587,61.2,2.688,50.934,1.271,47.408,1.271,3.239-1.128.4.665-.761,5.54.76,6.953,2.927,8.572c2.725,2.376,18.411,2.58,22.485,3.418-1.363,2.733,1.176,5.7,2.9,7.169C31.75,21.9,37.617,22.4,44.777,22.4c11.05,4.09,18.523,6.872,25.767,7.675,4.719.523,14.25-1.129,16.127-1.719C87.657,26.554,89.305,10.537,87.657,9.92Z" fill="#ff9dce" fill-rule="evenodd"/>
        <path id="Path_4" data-name="Path 4" d="M25.412,11.99q.445-3.7,19.47-.431C53.6,13.071,60.659,15.3,62.793,17.7M87.657,9.92C84.1,8.587,61.2,2.688,50.934,1.271,47.408,1.271,3.239-1.128.4.665-.761,5.54.76,6.953,2.927,8.572c2.725,2.376,18.411,2.58,22.485,3.418-1.363,2.733,1.176,5.7,2.9,7.169C31.75,21.9,37.617,22.4,44.777,22.4c11.05,4.09,18.523,6.872,25.767,7.675,4.719.523,14.25-1.129,16.127-1.719C87.657,26.554,89.305,10.537,87.657,9.92Z" fill="none" stroke="#333" stroke-linecap="round" stroke-linejoin="round" stroke-width="2" fill-rule="evenodd"/>
      </g>
    </g>
  </g>
</svg>
