<svg xmlns="http://www.w3.org/2000/svg" width="92.178" height="70.676" viewBox="0 0 92.178 70.676">
  <g id="Page-1" transform="translate(-0.979 -0.845)">
    <g id="Artboard" transform="translate(-213 -145)">
      <g id="scissors" transform="translate(214.98 146.835)">
        <path id="scissors-bk" d="M42.547,16.151Q1.171,9.738,1.171,20.279C-.932,28.847,31.1,32.56,39.519,33.187c-6.607,0-40.451,7.385-39.5,16.938,2,9.657,21.007,2.91,36.1-1.056-.9,1.093-4.336,6.688,4.823,8.822-1.422,1.153-1.422,8.007,4.079,10.275,3.831,1.4,11.154-.782,14.907-2.268,10.606-2.97,20.811-2.97,26.659-12.862,5.2-13.833,3.434-26.27,1.139-32.756-1.139-4.128-7.586-6.76-12.055-10.541C66.383,4.07,59.169-.985,53.773.165Q45.486,1.769,42.547,16.151Z" fill="#ff9dce" fill-rule="evenodd"/>
        <path id="Path_2" data-name="Path 2" d="M42.547,16.151q-3,11.361,2.635,14.5c10.3,1.9,11.633-11.941,13.3-14.608,0,7.011,6,19.855,10.978,23.614M36.118,49.068q15.573-4.653,16.5-4.7c1.124.145,9.351-2.115,10.923,2.813.941,3.586-3.358,6.1-4.382,7.232.863.619,4.382,1.34,5.323,3.665.739,3.215-1.653,6.38-3.9,7.618M59.154,54.417s-2.027,2.242-8.026,2.919q-3.168.358-10.188.554m1.606-41.739Q1.171,9.738,1.171,20.279C-.932,28.847,31.1,32.56,39.519,33.187c-6.607,0-40.451,7.385-39.5,16.938,2,9.657,21.007,2.91,36.1-1.056-.9,1.093-4.336,6.688,4.823,8.822-1.422,1.153-1.422,8.007,4.079,10.275,3.831,1.4,11.154-.782,14.907-2.268,10.606-2.97,20.811-2.97,26.659-12.862,5.2-13.833,3.434-26.27,1.139-32.756-1.139-4.128-7.586-6.76-12.055-10.541C66.383,4.07,59.169-.985,53.773.165Q45.486,1.769,42.547,16.151Z" fill="none" stroke="#333" stroke-linecap="round" stroke-linejoin="round" stroke-width="2" fill-rule="evenodd"/>
      </g>
    </g>
  </g>
</svg>
