<svg xmlns="http://www.w3.org/2000/svg" width="88.923" height="62.944" viewBox="0 0 88.923 62.944">
  <g id="Page-1" transform="translate(-0.44 -0.118)">
    <g id="Artboard" transform="translate(-9 -150)">
      <g id="rock" transform="translate(10.44 151.1)">
        <path id="hand-bk" d="M52.031.095C46.5.095,16.858-1.856,20.947,11.952c-2.584,0-17.661-2.542-17.661,6.267S12.743,23.39,22.448,24.1C13.359,25.641,0,22.532,0,31.95c0,8.091,21.96,2.884,27.913,2.884-5.465,1.181-24.627,1.181-24.627,9.819s26.138,0,33.538,0c-14.874,2.84-25.83,2.84-24.081,11.1.79,2.942,4.157,4.148,9.705,3.293,3.634,1.735,19.584,2.735,31.536,1,16.871-.763,25.055-9.769,32.938-7.646V16.646c-6.558-1.882-12.07-1.882-13.691-2.74C68.812,10.759,56.564,1.855,52.031.095Z" fill="#ff9dce" fill-rule="evenodd"/>
        <path id="Path_3" data-name="Path 3" d="M22.351,58.979c2.847,0,23.7-1.692,23.7-10.386,0-5.4-7.452-3.94-9.231-3.94,2.047-1.507,5.354-3.081,4.6-7.764,0-4.939-10.222-2.105-13.822-2.105,3.155-.232,12.272-.232,12.272-5.873,0-5.284-5.159-2.652-4.621-5.284q6.693.8,6.171-7.642M20.947,11.952c2.946,10.789,2.946,20,4.348,21.578,3.33,0,11.528-3.2,9.954-17.545,1.575-1.22,3.7-.265,7.158-1.22C40.474,22.476,47.5,30.721,57,31.95M52.031.095C46.5.095,16.858-1.856,20.947,11.952c-2.584,0-17.661-2.542-17.661,6.267S12.743,23.39,22.448,24.1C13.359,25.641,0,22.532,0,31.95c0,8.091,21.96,2.884,27.913,2.884-5.465,1.181-24.627,1.181-24.627,9.819s26.138,0,33.538,0c-14.874,2.84-25.83,2.84-24.081,11.1.79,2.942,4.157,4.148,9.705,3.293,3.634,1.735,19.584,2.735,31.536,1,16.871-.763,25.055-9.769,32.938-7.646V16.646c-6.558-1.882-12.07-1.882-13.691-2.74C68.812,10.759,56.564,1.855,52.031.095Z" fill="none" stroke="#333" stroke-linecap="round" stroke-linejoin="round" stroke-width="2" fill-rule="evenodd"/>
      </g>
    </g>
  </g>
</svg>
